# Blender v3.0.1 OBJ File: 'medicine_hospital_bed.blend'
# www.blender.org
mtllib medicine_hospital_bed.mtl
o Cube
v 0.900000 0.300000 -0.700000
v 1.000000 0.000000 -0.800000
v 0.900000 0.300000 2.700000
v 1.000000 0.000000 2.800000
v -0.900000 0.300000 -0.700000
v -1.000000 0.000000 -0.800000
v -0.900000 0.300000 2.700000
v -1.000000 0.000000 2.800000
v 1.000000 0.300000 2.800000
v -1.000000 0.300000 2.800000
v 1.000000 0.300000 -0.800000
v -1.000000 0.300000 -0.800000
v 0.900000 0.450000 2.700000
v -0.900000 0.450000 2.700000
v 0.900000 0.450000 -0.700000
v -0.900000 0.450000 -0.700000
v -0.800000 1.000000 -0.800000
v -0.800000 -1.000000 -0.800000
v 1.000000 -1.000000 -0.800000
v -0.800000 -1.000000 -1.000000
v 0.800000 -1.000000 -1.000000
v -1.000000 -1.000000 -0.800000
v -1.000000 1.000000 -1.000000
v -1.000000 -1.000000 -1.000000
v 0.800000 -1.000000 -0.800000
v -0.800000 1.000000 -1.000000
v -1.000000 1.000000 -0.800000
v 0.800000 1.000000 -0.800000
v -0.454366 1.345634 -0.800000
v -0.454366 1.345634 -1.000000
v -0.454366 1.545634 -0.800000
v -0.454366 1.545634 -1.000000
v -0.663171 1.504100 -1.000000
v -0.840188 1.385821 -1.000000
v -0.958466 1.208805 -1.000000
v -0.958466 1.208805 -0.800000
v -0.840188 1.385821 -0.800000
v -0.663171 1.504100 -0.800000
v -0.773690 1.132268 -0.800000
v -0.698766 1.244400 -0.800000
v -0.586634 1.319324 -0.800000
v -0.586634 1.319324 -1.000000
v -0.698766 1.244400 -1.000000
v -0.773690 1.132268 -1.000000
v 1.000000 1.000000 -1.000000
v 1.000000 -1.000000 -1.000000
v 0.800000 1.000000 -1.000000
v 1.000000 1.000000 -0.800000
v 0.454366 1.345634 -0.800000
v 0.454366 1.345634 -1.000000
v 0.454366 1.545634 -0.800000
v 0.454366 1.545634 -1.000000
v 0.663171 1.504100 -1.000000
v 0.840188 1.385821 -1.000000
v 0.958466 1.208805 -1.000000
v 0.958466 1.208805 -0.800000
v 0.840188 1.385821 -0.800000
v 0.663171 1.504100 -0.800000
v 0.773690 1.132268 -0.800000
v 0.698766 1.244400 -0.800000
v 0.586634 1.319324 -0.800000
v 0.586634 1.319324 -1.000000
v 0.698766 1.244400 -1.000000
v 0.773690 1.132268 -1.000000
v 0.800000 -0.100000 -0.800000
v -0.800000 -0.100000 -0.800000
v -0.800000 -0.100000 -1.000000
v -0.800000 0.100000 -0.800000
v 0.800000 0.100000 -1.000000
v -0.800000 0.100000 -1.000000
v 0.800000 -0.100000 -1.000000
v 0.800000 0.100000 -0.800000
v 0.170000 0.100000 -0.800000
v 0.170000 1.345634 -0.800000
v 0.170000 1.345634 -1.000000
v 0.370000 1.345634 -0.800000
v 0.370000 0.100000 -1.000000
v 0.370000 1.345634 -1.000000
v 0.170000 0.100000 -1.000000
v 0.370000 0.100000 -0.800000
v -0.360000 0.100000 -0.800000
v -0.360000 1.345634 -0.800000
v -0.360000 1.345634 -1.000000
v -0.160000 1.345634 -0.800000
v -0.160000 0.100000 -1.000000
v -0.160000 1.345634 -1.000000
v -0.360000 0.100000 -1.000000
v -0.160000 0.100000 -0.800000
v -0.800000 1.000000 3.000000
v -0.800000 -1.000000 3.000000
v 1.000000 -1.000000 3.000000
v -0.800000 -1.000000 2.800000
v 0.800000 -1.000000 2.800000
v -1.000000 -1.000000 3.000000
v -1.000000 1.000000 2.800000
v -1.000000 -1.000000 2.800000
v 0.800000 -1.000000 3.000000
v -0.800000 1.000000 2.800000
v -1.000000 1.000000 3.000000
v 0.800000 1.000000 3.000000
v -0.454366 1.345634 3.000000
v -0.454366 1.345634 2.800000
v -0.454366 1.545634 3.000000
v -0.454366 1.545634 2.800000
v -0.663171 1.504100 2.800000
v -0.840188 1.385821 2.800000
v -0.958466 1.208805 2.800000
v -0.958466 1.208805 3.000000
v -0.840188 1.385821 3.000000
v -0.663171 1.504100 3.000000
v -0.773690 1.132268 3.000000
v -0.698766 1.244400 3.000000
v -0.586634 1.319324 3.000000
v -0.586634 1.319324 2.800000
v -0.698766 1.244400 2.800000
v -0.773690 1.132268 2.800000
v 1.000000 1.000000 2.800000
v 1.000000 -1.000000 2.800000
v 0.800000 1.000000 2.800000
v 1.000000 1.000000 3.000000
v 0.454366 1.345634 3.000000
v 0.454366 1.345634 2.800000
v 0.454366 1.545634 3.000000
v 0.454366 1.545634 2.800000
v 0.663171 1.504100 2.800000
v 0.840188 1.385821 2.800000
v 0.958466 1.208805 2.800000
v 0.958466 1.208805 3.000000
v 0.840188 1.385821 3.000000
v 0.663171 1.504100 3.000000
v 0.773690 1.132268 3.000000
v 0.698766 1.244400 3.000000
v 0.586634 1.319324 3.000000
v 0.586634 1.319324 2.800000
v 0.698766 1.244400 2.800000
v 0.773690 1.132268 2.800000
v 0.800000 -0.100000 3.000000
v -0.800000 -0.100000 3.000000
v -0.800000 -0.100000 2.800000
v -0.800000 0.100000 3.000000
v 0.800000 0.100000 2.800000
v -0.800000 0.100000 2.800000
v 0.800000 -0.100000 2.800000
v 0.800000 0.100000 3.000000
v 0.170000 0.100000 3.000000
v 0.170000 1.345634 3.000000
v 0.170000 1.345634 2.800000
v 0.370000 1.345634 3.000000
v 0.370000 0.100000 2.800000
v 0.370000 1.345634 2.800000
v 0.170000 0.100000 2.800000
v 0.370000 0.100000 3.000000
v -0.360000 0.100000 3.000000
v -0.360000 1.345634 3.000000
v -0.360000 1.345634 2.800000
v -0.160000 1.345634 3.000000
v -0.160000 0.100000 2.800000
v -0.160000 1.345634 2.800000
v -0.360000 0.100000 2.800000
v -0.160000 0.100000 3.000000
v 0.810000 0.450000 -0.600000
v 0.810000 0.450000 0.210000
v -0.810000 0.450000 -0.600000
v -0.810000 0.450000 0.210000
v 0.810000 0.600000 -0.600000
v 0.810000 0.600000 0.210000
v -0.810000 0.600000 -0.600000
v -0.810000 0.600000 0.210000
vt 0.090975 0.090975
vt 0.090974 0.022804
vt 0.545447 0.022803
vt 0.545447 0.090974
vt 0.613618 0.090974
vt 0.613620 0.909025
vt 0.545449 0.909025
vt 0.090977 0.909026
vt 0.022806 0.909026
vt 0.022803 0.090975
vt 0.545449 0.977196
vt 0.090977 0.977197
vt 0.113698 0.000081
vt 0.522723 0.000080
vt 0.000080 0.886300
vt 0.000080 0.113699
vt 0.636344 0.113700
vt 0.636344 0.886301
vt 0.522726 0.999919
vt 0.113700 0.999920
vt 0.810847 0.602341
vt 0.810847 0.865118
vt 0.784569 0.865118
vt 0.784569 0.602341
vt 0.500184 0.263079
vt 0.500184 0.000303
vt 0.526462 0.000303
vt 0.526462 0.263080
vt 0.757084 0.309096
vt 0.757084 0.571873
vt 0.730806 0.571873
vt 0.730806 0.309096
vt 0.598151 0.598151
vt 0.335374 0.598151
vt 0.335374 0.571874
vt 0.598151 0.571873
vt 0.757084 0.598151
vt 0.730807 0.598151
vt 0.757084 0.225180
vt 0.730806 0.225180
vt 0.730806 0.197207
vt 0.757084 0.197208
vt 0.664384 0.553896
vt 0.640107 0.543839
vt 0.643563 0.526461
vt 0.669841 0.526461
vt 0.472150 0.305035
vt 0.482206 0.329313
vt 0.454771 0.334770
vt 0.454771 0.308492
vt 0.810847 0.549184
vt 0.784569 0.549184
vt 0.784569 0.531464
vt 0.810847 0.531465
vt 0.784569 0.584622
vt 0.810847 0.584622
vt 0.784569 0.566903
vt 0.810847 0.566903
vt 0.521004 0.290514
vt 0.496727 0.280458
vt 0.505464 0.313772
vt 0.486883 0.295191
vt 0.615529 0.568417
vt 0.625586 0.592694
vt 0.630262 0.558572
vt 0.648844 0.577154
vt 0.730806 0.281124
vt 0.757084 0.281124
vt 0.730806 0.253152
vt 0.757084 0.253152
vt 0.811450 0.268084
vt 0.837728 0.268084
vt 0.837728 0.530861
vt 0.811450 0.530861
vt 0.289961 0.263079
vt 0.263684 0.263079
vt 0.263683 0.000302
vt 0.289961 0.000302
vt 0.703925 0.710643
vt 0.730203 0.710643
vt 0.730203 0.973420
vt 0.703925 0.973420
vt 0.598151 0.335373
vt 0.598151 0.361651
vt 0.335373 0.361651
vt 0.335373 0.335373
vt 0.730203 0.999698
vt 0.703925 0.999698
vt 0.703925 0.626727
vt 0.703925 0.598755
vt 0.730203 0.598755
vt 0.730203 0.626727
vt 0.664384 0.379629
vt 0.669841 0.407063
vt 0.643563 0.407063
vt 0.640107 0.389685
vt 0.317995 0.305035
vt 0.335374 0.308492
vt 0.335374 0.334770
vt 0.307939 0.329313
vt 0.811450 0.214927
vt 0.811450 0.197207
vt 0.837728 0.197207
vt 0.837728 0.214927
vt 0.811450 0.250365
vt 0.837728 0.250365
vt 0.811450 0.232646
vt 0.837728 0.232646
vt 0.293418 0.280458
vt 0.269141 0.290514
vt 0.303262 0.295191
vt 0.284681 0.313772
vt 0.625586 0.340830
vt 0.615529 0.365108
vt 0.648844 0.356371
vt 0.630262 0.374952
vt 0.703925 0.682671
vt 0.730203 0.682671
vt 0.703925 0.654699
vt 0.730203 0.654699
vt 0.659661 0.119699
vt 0.659661 0.000302
vt 0.685939 0.000302
vt 0.685939 0.119699
vt 0.670445 0.454771
vt 0.670445 0.335373
vt 0.696722 0.335373
vt 0.696722 0.454771
vt 0.605898 0.210524
vt 0.605898 0.000302
vt 0.632176 0.000302
vt 0.632176 0.210524
vt 0.527065 0.210524
vt 0.527065 0.000302
vt 0.553343 0.000302
vt 0.553343 0.210524
vt 0.579621 0.000302
vt 0.579621 0.210524
vt 0.539056 0.651310
vt 0.375393 0.651310
vt 0.375393 0.625032
vt 0.539056 0.625032
vt 0.375393 0.598755
vt 0.539056 0.598755
vt 0.539056 0.703866
vt 0.375393 0.703866
vt 0.375393 0.677588
vt 0.539056 0.677588
vt 0.703322 0.625032
vt 0.539659 0.625032
vt 0.539659 0.598755
vt 0.703322 0.598755
vt 0.703322 0.703866
vt 0.539659 0.703866
vt 0.539659 0.677588
vt 0.703322 0.677588
vt 0.539659 0.651310
vt 0.703322 0.651310
vt 0.864609 0.268084
vt 0.864609 0.530861
vt 0.838332 0.530861
vt 0.838332 0.268084
vt 0.236802 0.263079
vt 0.236802 0.000303
vt 0.263080 0.000303
vt 0.263080 0.263080
vt 0.783966 0.309096
vt 0.783966 0.571873
vt 0.757688 0.571873
vt 0.757688 0.309096
vt 0.263079 0.598151
vt 0.000303 0.598151
vt 0.000303 0.571874
vt 0.263079 0.571873
vt 0.783966 0.598151
vt 0.757688 0.598151
vt 0.783966 0.225180
vt 0.757688 0.225180
vt 0.757688 0.197207
vt 0.783966 0.197208
vt 0.329313 0.553896
vt 0.305035 0.543839
vt 0.308492 0.526461
vt 0.334770 0.526461
vt 0.208768 0.305035
vt 0.218824 0.329313
vt 0.191390 0.334770
vt 0.191390 0.308492
vt 0.864609 0.214927
vt 0.838332 0.214927
vt 0.838332 0.197207
vt 0.864609 0.197208
vt 0.838332 0.250365
vt 0.864609 0.250365
vt 0.838332 0.232646
vt 0.864609 0.232646
vt 0.257623 0.290514
vt 0.233345 0.280458
vt 0.242082 0.313772
vt 0.223501 0.295191
vt 0.280458 0.568417
vt 0.290514 0.592694
vt 0.295191 0.558572
vt 0.313772 0.577154
vt 0.757688 0.281124
vt 0.783966 0.281124
vt 0.757688 0.253152
vt 0.783966 0.253152
vt 0.784569 0.268084
vt 0.810847 0.268084
vt 0.810847 0.530861
vt 0.784569 0.530861
vt 0.026580 0.263080
vt 0.000302 0.263080
vt 0.000302 0.000302
vt 0.026580 0.000302
vt 0.703925 0.309096
vt 0.730203 0.309096
vt 0.730203 0.571873
vt 0.703925 0.571873
vt 0.263079 0.335373
vt 0.263079 0.361651
vt 0.000302 0.361651
vt 0.000302 0.335373
vt 0.730203 0.598151
vt 0.703925 0.598151
vt 0.703925 0.225180
vt 0.703925 0.197207
vt 0.730203 0.197207
vt 0.730203 0.225180
vt 0.329313 0.379629
vt 0.334770 0.407063
vt 0.308492 0.407063
vt 0.305035 0.389685
vt 0.054614 0.305035
vt 0.071992 0.308492
vt 0.071992 0.334770
vt 0.044558 0.329313
vt 0.784569 0.214927
vt 0.784569 0.197207
vt 0.810847 0.197207
vt 0.810847 0.214927
vt 0.784569 0.250365
vt 0.810847 0.250365
vt 0.784569 0.232646
vt 0.810847 0.232646
vt 0.030037 0.280458
vt 0.005759 0.290514
vt 0.039881 0.295191
vt 0.021300 0.313772
vt 0.290514 0.340830
vt 0.280458 0.365108
vt 0.313772 0.356371
vt 0.295191 0.374952
vt 0.703925 0.281124
vt 0.730203 0.281124
vt 0.703925 0.253152
vt 0.730203 0.253152
vt 0.000302 0.704469
vt 0.119699 0.704469
vt 0.119699 0.730747
vt 0.000302 0.730747
vt 0.632780 0.119699
vt 0.632780 0.000302
vt 0.659057 0.000302
vt 0.659057 0.119699
vt 0.210524 0.703866
vt 0.000302 0.703866
vt 0.000302 0.677588
vt 0.210524 0.677588
vt 0.000302 0.651310
vt 0.210524 0.651310
vt 0.000302 0.625032
vt 0.210524 0.625033
vt 0.000302 0.598755
vt 0.210524 0.598755
vt 0.374790 0.677588
vt 0.211128 0.677588
vt 0.211128 0.651310
vt 0.374790 0.651310
vt 0.211128 0.625032
vt 0.374790 0.625032
vt 0.211128 0.598755
vt 0.374790 0.598755
vt 0.374790 0.703866
vt 0.211128 0.703866
vt 0.690727 0.316239
vt 0.527065 0.316239
vt 0.527065 0.289961
vt 0.690727 0.289961
vt 0.527065 0.263683
vt 0.690727 0.263683
vt 0.527065 0.237405
vt 0.690727 0.237405
vt 0.527065 0.211128
vt 0.690727 0.211128
vt 0.040646 0.000116
vt 0.527020 0.000115
vt 0.527020 0.040646
vt 0.040646 0.040647
vt 0.527022 0.959353
vt 0.040648 0.959354
vt 0.527022 0.999884
vt 0.040648 0.999885
vt 0.567553 0.040646
vt 0.567553 0.959353
vt 0.000115 0.959354
vt 0.000115 0.040647
vt 0.608314 0.040646
vt 0.827183 0.040646
vt 0.827183 0.478384
vt 0.608314 0.478384
vt 0.867714 0.040646
vt 0.867714 0.478384
vt 0.827183 0.518915
vt 0.608314 0.518915
vt 0.608314 0.000115
vt 0.827183 0.000115
vt 0.567783 0.478384
vt 0.567783 0.040646
vn 0.0000 0.0000 1.0000
vn -1.0000 0.0000 0.0000
vn 0.0000 -1.0000 0.0000
vn 1.0000 0.0000 0.0000
vn 0.0000 0.0000 -1.0000
vn 0.0000 1.0000 0.0000
vn -0.1951 0.9808 0.0000
vn 0.1951 -0.9808 0.0000
vn 0.9808 -0.1951 0.0000
vn 0.8315 -0.5556 0.0000
vn 0.5556 -0.8315 0.0000
vn -0.9808 0.1951 0.0000
vn -0.8315 0.5556 0.0000
vn -0.5556 0.8315 0.0000
vn 0.1951 0.9808 0.0000
vn -0.1951 -0.9808 0.0000
vn -0.9808 -0.1951 0.0000
vn -0.8315 -0.5556 0.0000
vn -0.5556 -0.8315 0.0000
vn 0.9808 0.1951 0.0000
vn 0.8315 0.5556 0.0000
vn 0.5556 0.8315 0.0000
g Cube_Cube_Material
usemtl Material
s off
f 4/1/1 9/2/1 10/3/1 8/4/1
f 8/4/2 10/5/2 12/6/2 6/7/2
f 6/7/3 2/8/3 4/1/3 8/4/3
f 2/8/4 11/9/4 9/10/4 4/1/4
f 6/7/5 12/11/5 11/12/5 2/8/5
f 3/13/6 7/14/6 10/3/6 9/2/6
f 1/15/6 3/16/6 9/10/6 11/9/6
f 7/17/6 5/18/6 12/6/6 10/5/6
f 5/19/6 1/20/6 11/12/6 12/11/6
g Cube_Cube_Material.001
usemtl Material.001
f 17/21/4 18/22/4 20/23/4 26/24/4
f 26/25/5 20/26/5 24/27/5 23/28/5
f 23/29/2 24/30/2 22/31/2 27/32/2
f 27/33/1 22/34/1 18/35/1 17/36/1
f 24/30/3 20/37/3 18/38/3 22/31/3
f 33/39/7 38/40/7 31/41/7 32/42/7
f 38/43/1 41/44/1 29/45/1 31/46/1
f 42/47/5 33/48/5 32/49/5 30/50/5
f 41/51/8 42/52/8 30/53/8 29/54/8
f 17/21/9 26/24/9 44/55/9 39/56/9
f 39/56/10 44/55/10 43/57/10 40/58/10
f 40/58/11 43/57/11 42/52/11 41/51/11
f 26/25/5 23/28/5 35/59/5 44/60/5
f 44/60/5 35/59/5 34/61/5 43/62/5
f 43/62/5 34/61/5 33/48/5 42/47/5
f 27/33/1 17/36/1 39/63/1 36/64/1
f 36/64/1 39/63/1 40/65/1 37/66/1
f 37/66/1 40/65/1 41/44/1 38/43/1
f 23/29/12 27/32/12 36/67/12 35/68/12
f 35/68/13 36/67/13 37/69/13 34/70/13
f 34/70/14 37/69/14 38/40/14 33/39/14
f 28/71/2 47/72/2 21/73/2 25/74/2
f 47/75/5 45/76/5 46/77/5 21/78/5
f 45/79/4 48/80/4 19/81/4 46/82/4
f 48/83/1 28/84/1 25/85/1 19/86/1
f 46/82/3 19/81/3 25/87/3 21/88/3
f 53/89/15 52/90/15 51/91/15 58/92/15
f 58/93/1 51/94/1 49/95/1 61/96/1
f 62/97/5 50/98/5 52/99/5 53/100/5
f 61/101/16 49/102/16 50/103/16 62/104/16
f 28/71/17 59/105/17 64/106/17 47/72/17
f 59/105/18 60/107/18 63/108/18 64/106/18
f 60/107/19 61/101/19 62/104/19 63/108/19
f 47/75/5 64/109/5 55/110/5 45/76/5
f 64/109/5 63/111/5 54/112/5 55/110/5
f 63/111/5 62/97/5 53/100/5 54/112/5
f 48/83/1 56/113/1 59/114/1 28/84/1
f 56/113/1 57/115/1 60/116/1 59/114/1
f 57/115/1 58/93/1 61/96/1 60/116/1
f 45/79/20 55/117/20 56/118/20 48/80/20
f 55/117/21 54/119/21 57/120/21 56/118/21
f 54/119/22 53/89/22 58/92/22 57/120/22
f 52/121/6 32/122/6 31/123/6 51/124/6
f 50/98/5 30/50/5 32/49/5 52/99/5
f 49/125/3 29/126/3 30/127/3 50/128/3
f 51/94/1 31/46/1 29/45/1 49/95/1
f 65/129/3 66/130/3 67/131/3 71/132/3
f 71/133/5 67/134/5 70/135/5 69/136/5
f 69/136/6 70/135/6 68/137/6 72/138/6
f 72/138/1 68/137/1 66/130/1 65/129/1
f 73/139/2 74/140/2 75/141/2 79/142/2
f 79/142/5 75/141/5 78/143/5 77/144/5
f 77/145/4 78/146/4 76/147/4 80/148/4
f 80/148/1 76/147/1 74/140/1 73/139/1
f 81/149/2 82/150/2 83/151/2 87/152/2
f 87/153/5 83/154/5 86/155/5 85/156/5
f 85/156/4 86/155/4 84/157/4 88/158/4
f 88/158/1 84/157/1 82/150/1 81/149/1
f 89/159/4 90/160/4 92/161/4 98/162/4
f 98/163/5 92/164/5 96/165/5 95/166/5
f 95/167/2 96/168/2 94/169/2 99/170/2
f 99/171/1 94/172/1 90/173/1 89/174/1
f 96/168/3 92/175/3 90/176/3 94/169/3
f 105/177/7 110/178/7 103/179/7 104/180/7
f 110/181/1 113/182/1 101/183/1 103/184/1
f 114/185/5 105/186/5 104/187/5 102/188/5
f 113/189/8 114/190/8 102/191/8 101/192/8
f 89/159/9 98/162/9 116/193/9 111/194/9
f 111/194/10 116/193/10 115/195/10 112/196/10
f 112/196/11 115/195/11 114/190/11 113/189/11
f 98/163/5 95/166/5 107/197/5 116/198/5
f 116/198/5 107/197/5 106/199/5 115/200/5
f 115/200/5 106/199/5 105/186/5 114/185/5
f 99/171/1 89/174/1 111/201/1 108/202/1
f 108/202/1 111/201/1 112/203/1 109/204/1
f 109/204/1 112/203/1 113/182/1 110/181/1
f 95/167/12 99/170/12 108/205/12 107/206/12
f 107/206/13 108/205/13 109/207/13 106/208/13
f 106/208/14 109/207/14 110/178/14 105/177/14
f 100/209/2 119/210/2 93/211/2 97/212/2
f 119/213/5 117/214/5 118/215/5 93/216/5
f 117/217/4 120/218/4 91/219/4 118/220/4
f 120/221/1 100/222/1 97/223/1 91/224/1
f 118/220/3 91/219/3 97/225/3 93/226/3
f 125/227/15 124/228/15 123/229/15 130/230/15
f 130/231/1 123/232/1 121/233/1 133/234/1
f 134/235/5 122/236/5 124/237/5 125/238/5
f 133/239/16 121/240/16 122/241/16 134/242/16
f 100/209/17 131/243/17 136/244/17 119/210/17
f 131/243/18 132/245/18 135/246/18 136/244/18
f 132/245/19 133/239/19 134/242/19 135/246/19
f 119/213/5 136/247/5 127/248/5 117/214/5
f 136/247/5 135/249/5 126/250/5 127/248/5
f 135/249/5 134/235/5 125/238/5 126/250/5
f 120/221/1 128/251/1 131/252/1 100/222/1
f 128/251/1 129/253/1 132/254/1 131/252/1
f 129/253/1 130/231/1 133/234/1 132/254/1
f 117/217/20 127/255/20 128/256/20 120/218/20
f 127/255/21 126/257/21 129/258/21 128/256/21
f 126/257/22 125/227/22 130/230/22 129/258/22
f 124/259/6 104/260/6 103/261/6 123/262/6
f 122/236/5 102/188/5 104/187/5 124/237/5
f 121/263/3 101/264/3 102/265/3 122/266/3
f 123/232/1 103/184/1 101/183/1 121/233/1
f 137/267/3 138/268/3 139/269/3 143/270/3
f 143/270/5 139/269/5 142/271/5 141/272/5
f 141/272/6 142/271/6 140/273/6 144/274/6
f 144/274/1 140/273/1 138/275/1 137/276/1
f 145/277/2 146/278/2 147/279/2 151/280/2
f 151/280/5 147/279/5 150/281/5 149/282/5
f 149/282/4 150/281/4 148/283/4 152/284/4
f 152/285/1 148/286/1 146/278/1 145/277/1
f 153/287/2 154/288/2 155/289/2 159/290/2
f 159/290/5 155/289/5 158/291/5 157/292/5
f 157/292/4 158/291/4 156/293/4 160/294/4
f 160/294/1 156/293/1 154/295/1 153/296/1
g Cube_Cube_Material.002
usemtl Material.002
f 7/297/1 3/298/1 13/299/1 14/300/1
f 15/301/6 16/302/6 14/300/6 13/299/6
f 1/303/5 5/304/5 16/302/5 15/301/5
f 3/305/4 1/306/4 15/301/4 13/299/4
f 5/307/2 7/308/2 14/300/2 16/302/2
f 167/309/6 168/310/6 166/311/6 165/312/6
f 164/313/1 162/314/1 166/311/1 168/310/1
f 162/315/4 161/316/4 165/312/4 166/311/4
f 163/317/2 164/318/2 168/310/2 167/309/2
f 161/319/5 163/320/5 167/309/5 165/312/5
