# Blender v3.0.1 OBJ File: 'medicine_trashcan.blend'
# www.blender.org
mtllib medicine_trashcan.mtl
o Cube
v 0.620000 0.400000 -0.460000
v 0.576000 -1.000000 -0.448000
v 0.620000 0.400000 0.460000
v 0.576000 -1.000000 0.448000
v -0.620000 0.400000 -0.460000
v -0.576000 -1.000000 -0.448000
v -0.620000 0.400000 0.460000
v -0.576000 -1.000000 0.448000
v 0.720000 0.400000 0.560000
v -0.720000 0.400000 0.560000
v 0.720000 0.400000 -0.560000
v -0.720000 0.400000 -0.560000
v 0.496000 -0.910000 0.368000
v -0.496000 -0.910000 0.368000
v 0.496000 -0.910000 -0.368000
v -0.496000 -0.910000 -0.368000
v 0.450000 -0.865000 0.458072
v 0.450000 -0.865000 0.371160
v -0.450000 -0.865000 0.458072
v -0.450000 -0.865000 0.371160
v 0.262500 -0.415000 0.494331
v 0.262500 -0.415000 0.402763
v -0.262500 -0.415000 0.494331
v -0.262500 -0.415000 0.402763
v 0.450000 -0.865000 0.221160
v -0.450000 -0.865000 0.221160
v 0.262500 -0.415000 0.252763
v -0.262500 -0.415000 0.252763
vt 0.352529 0.814781
vt 0.352529 0.525057
vt 0.659362 0.554030
vt 0.659362 0.785809
vt 0.351855 0.303146
vt 0.320224 0.273706
vt 0.320224 0.063423
vt 0.351855 0.033983
vt 0.704727 0.235855
vt 0.375894 0.262023
vt 0.375894 0.000337
vt 0.704727 0.026506
vt 0.705401 0.269500
vt 0.705401 0.000337
vt 0.914750 0.000337
vt 0.914750 0.269500
vt 0.352529 0.288866
vt 0.681362 0.262697
vt 0.681362 0.524383
vt 0.352529 0.498215
vt 0.000337 0.371111
vt 0.328490 0.337466
vt 0.328490 0.673920
vt 0.000337 0.640274
vt 0.000337 0.313427
vt 0.000337 0.023702
vt 0.023702 0.000337
vt 0.023702 0.336792
vt 0.704727 0.286062
vt 0.704727 0.501019
vt 0.352529 0.238658
vt 0.352529 0.023702
vt 0.351855 0.360830
vt 0.351855 0.650555
vt 0.705401 0.501953
vt 0.705401 0.270174
vt 0.877366 0.270174
vt 0.877366 0.501953
vt 0.967483 0.525057
vt 0.967483 0.740014
vt 0.660036 0.718518
vt 0.660036 0.546553
vt 0.967483 0.740688
vt 0.967483 0.955644
vt 0.660036 0.934149
vt 0.660036 0.762184
vt 0.000337 0.964318
vt 0.000337 0.674594
vt 0.307170 0.703566
vt 0.296630 0.714314
vt 0.191229 0.758123
vt 0.191229 0.880788
vt 0.296630 0.924597
vt 0.307170 0.935345
vt 0.980166 0.237689
vt 0.959869 0.237055
vt 0.954955 0.122943
vt 0.976339 0.123610
vt 0.988457 0.639143
vt 0.968157 0.639674
vt 0.972563 0.525616
vt 0.993951 0.525057
vt 0.214742 0.107232
vt 0.214742 0.229897
vt 0.993951 0.849355
vt 0.973651 0.849886
vt 0.958782 0.000337
vt 0.980166 0.001004
vt 0.347671 0.674594
vt 0.342882 0.788636
vt 0.307844 0.789434
vt 0.312633 0.675392
vt 0.915424 0.122943
vt 0.919251 0.000337
vt 0.954281 0.001430
vt 0.950454 0.124036
vt 0.919251 0.237021
vt 0.954281 0.238115
vt 0.347671 0.998865
vt 0.312633 0.999663
vt 0.983441 0.270174
vt 0.983441 0.480457
vt 0.878040 0.436648
vt 0.878040 0.313983
vn 0.0000 0.0701 0.9975
vn 0.0000 -0.0744 0.9972
vn -0.9948 -0.1023 0.0000
vn 0.0000 -1.0000 0.0000
vn 0.9948 -0.1023 0.0000
vn 0.0000 -0.0797 -0.9968
vn 0.0000 1.0000 0.0000
vn -0.9955 0.0942 0.0000
vn 0.9955 0.0942 0.0000
vn 0.0000 0.0701 -0.9975
vn -0.9231 -0.3846 0.0000
vn 0.9231 -0.3846 0.0000
vn 0.0000 -0.0802 0.9968
vn 0.0000 -0.0701 0.9975
g Cube_Cube_Material
usemtl Material
s off
f 1/1/1 5/2/1 16/3/1 15/4/1
f 4/5/2 17/6/2 19/7/2 8/8/2
f 8/9/3 10/10/3 12/11/3 6/12/3
f 6/13/4 2/14/4 4/15/4 8/16/4
f 2/17/5 11/18/5 9/19/5 4/20/5
f 6/21/6 12/22/6 11/23/6 2/24/6
f 3/25/7 7/26/7 10/27/7 9/28/7
f 1/29/7 3/30/7 9/19/7 11/18/7
f 7/31/7 5/32/7 12/11/7 10/10/7
f 5/33/7 1/34/7 11/23/7 12/22/7
f 15/35/7 16/36/7 14/37/7 13/38/7
f 3/39/8 1/40/8 15/41/8 13/42/8
f 5/43/9 7/44/9 14/45/9 16/46/9
f 7/47/10 3/48/10 13/49/10 18/50/10 22/51/10 24/52/10 20/53/10 14/54/10
f 18/55/11 17/56/11 21/57/11 22/58/11
f 14/54/10 20/53/10 18/50/10 13/49/10
f 19/59/12 20/60/12 24/61/12 23/62/12
f 8/8/13 19/7/13 23/63/13 21/64/13 17/6/13 4/5/13 9/28/13 10/27/13
f 20/60/7 19/59/7 17/65/7 18/66/7
f 22/58/4 21/57/4 23/67/4 24/68/4
f 24/69/12 20/70/12 26/71/12 28/72/12
f 22/73/4 24/74/4 28/75/4 27/76/4
f 18/77/11 22/73/11 27/76/11 25/78/11
f 20/70/7 18/79/7 25/80/7 26/71/7
f 26/81/14 25/82/14 27/83/14 28/84/14
