# Blender v3.0.1 OBJ File: 'medicine_medical_bag.blend'
# www.blender.org
mtllib medicine_medical_bag.mtl
o Cube
v 0.750000 0.300000 -0.350000
v 0.750000 -1.000000 -0.350000
v 0.750000 0.300000 0.350000
v 0.750000 -1.000000 0.350000
v -0.750000 0.300000 -0.350000
v -0.750000 -1.000000 -0.350000
v -0.750000 0.300000 0.350000
v -0.750000 -1.000000 0.350000
v -0.367770 0.300000 0.067770
v -0.367770 0.585540 0.067770
v -0.367770 0.300000 -0.067770
v -0.367770 0.585540 -0.067770
v -0.232230 0.300000 0.067770
v -0.232230 0.585540 0.067770
v -0.232230 0.300000 -0.067770
v -0.232230 0.585540 -0.067770
v 0.232230 0.300000 0.067770
v 0.232230 0.585540 0.067770
v 0.232230 0.300000 -0.067770
v 0.232230 0.585540 -0.067770
v 0.367770 0.300000 0.067770
v 0.367770 0.585540 0.067770
v 0.367770 0.300000 -0.067770
v 0.367770 0.585540 -0.067770
v -0.367770 0.492770 0.067770
v -0.367770 0.492770 -0.067770
v -0.232230 0.492770 -0.067770
v -0.232230 0.492770 0.067770
v 0.232230 0.492770 0.067770
v 0.232230 0.492770 -0.067770
v 0.367770 0.492770 -0.067770
v 0.367770 0.492770 0.067770
vt 0.500000 0.546875
vt 0.500000 0.156250
vt 0.656250 0.156250
vt 0.656250 0.546875
vt 0.984375 0.546875
vt 0.984375 0.156250
vt 0.656250 0.000000
vt 0.984375 0.000000
vt 0.171875 0.156250
vt 0.171875 0.546875
vt 0.000000 0.546875
vt 0.000000 0.156250
vt 0.984375 0.718750
vt 0.656250 0.718750
vt 0.546875 0.453125
vt 0.546875 0.500000
vt 0.484375 0.500000
vt 0.484375 0.453125
vt 0.421875 0.500000
vt 0.421875 0.453125
vt 0.171875 0.062500
vt 0.125000 0.062500
vt 0.125000 0.000000
vt 0.171875 0.000000
vt 0.484375 0.562500
vt 0.546875 0.562500
vt 0.187500 0.453125
vt 0.187500 0.500000
vt 0.125000 0.500000
vt 0.125000 0.453125
vt 0.484375 0.906250
vt 0.484375 0.859375
vt 0.546875 0.859375
vt 0.546875 0.906250
vt 0.171875 0.359375
vt 0.125000 0.359375
vt 0.125000 0.296875
vt 0.171875 0.296875
vt 0.484375 0.796875
vt 0.546875 0.796875
vt 0.265625 0.062500
vt 0.265625 0.000000
vt 0.625000 0.359375
vt 0.625000 0.453125
vt 0.546875 0.453125
vt 0.546875 0.359375
vt 0.484375 0.359375
vt 0.421875 0.359375
vt 0.546875 0.359375
vt 0.265625 0.359375
vt 0.265625 0.296875
vt 0.484375 1.000000
vt 0.546875 1.000000
vt 0.187500 0.359375
vt 0.125000 0.359375
vt 0.546875 0.781250
vt 0.546875 0.687500
vt 0.625000 0.687500
vt 0.625000 0.781250
vn 0.0000 1.0000 0.0000
vn 0.0000 0.0000 1.0000
vn -1.0000 0.0000 0.0000
vn 0.0000 -1.0000 0.0000
vn 1.0000 0.0000 0.0000
vn 0.0000 0.0000 -1.0000
g Cube_Cube_Material
usemtl Material
s off
f 1/1/1 5/2/1 7/3/1 3/4/1
f 4/5/2 3/4/2 7/3/2 8/6/2
f 8/6/3 7/3/3 5/7/3 6/8/3
f 6/9/4 2/10/4 4/11/4 8/12/4
f 2/13/5 1/14/5 3/4/5 4/5/5
f 6/9/6 5/2/6 1/1/6 2/10/6
g Cube_Cube_Material.001
usemtl Material.001
f 25/15/3 10/16/3 12/17/3 26/18/3
f 26/18/6 12/17/6 16/19/6 27/20/6
f 28/21/2 14/22/2 10/23/2 25/24/2
f 16/25/1 12/17/1 10/16/1 14/26/1
f 30/27/6 20/28/6 24/29/6 31/30/6
f 31/31/5 24/32/5 22/33/5 32/34/5
f 32/35/2 22/36/2 18/37/2 29/38/2
f 24/32/1 20/39/1 18/40/1 22/33/1
f 13/41/2 28/21/2 25/24/2 9/42/2
f 15/43/5 27/44/5 28/45/5 13/46/5
f 11/47/6 26/18/6 27/20/6 15/48/6
f 9/49/3 25/15/3 26/18/3 11/47/3
f 21/50/2 32/35/2 29/38/2 17/51/2
f 23/52/5 31/31/5 32/34/5 21/53/5
f 19/54/6 30/27/6 31/30/6 23/55/6
f 17/56/3 29/57/3 30/58/3 19/59/3
f 29/38/2 18/37/2 14/22/2 28/21/2
f 16/25/1 14/26/1 18/40/1 20/39/1
f 27/44/4 30/58/4 29/57/4 28/45/4
f 27/20/6 16/19/6 20/28/6 30/27/6
