# Blender v3.0.1 OBJ File: 'medicine_trashcan_cover.blend'
# www.blender.org
mtllib medicine_trashcan_cover.mtl
o Cube.001_Cube.002
v 0.720000 0.000000 1.120000
v -0.720000 0.000000 1.120000
v 0.720000 0.000000 0.000000
v -0.720000 0.000000 0.000000
v 0.720000 0.200000 1.120000
v -0.720000 0.200000 1.120000
v 0.720000 0.200000 0.000000
v -0.720000 0.200000 0.000000
v 0.180000 0.000000 1.120000
v -0.180000 0.000000 1.120000
v 0.180000 0.200000 1.120000
v -0.180000 0.200000 1.120000
v 0.180000 0.000000 1.220000
v -0.180000 0.000000 1.220000
v 0.180000 0.150000 1.220000
v -0.180000 0.150000 1.220000
vt 0.575742 0.621188
vt 0.575742 0.075843
vt 0.999900 0.075843
vt 0.999899 0.621188
vt 0.500000 0.621188
vt 0.075843 0.621188
vt 0.075843 0.075843
vt 0.500000 0.075843
vt 0.075843 0.000101
vt 0.500000 0.000101
vt 0.000101 0.621188
vt 0.000101 0.075843
vt 0.500000 0.696930
vt 0.075843 0.696930
vt 0.099249 0.735002
vt 0.099249 0.871338
vt 0.042442 0.871338
vt 0.042442 0.735002
vt 0.023506 0.697131
vt 0.099249 0.697131
vt 0.137120 0.735002
vt 0.137120 0.871338
vt 0.099249 0.909210
vt 0.023506 0.909210
vt 0.000101 0.871338
vt 0.000101 0.735002
vn 0.0000 -1.0000 0.0000
vn 0.0000 1.0000 0.0000
vn -1.0000 0.0000 0.0000
vn 0.0000 0.0000 1.0000
vn 0.0000 0.0000 -1.0000
vn 1.0000 0.0000 0.0000
vn 0.0000 0.8944 0.4472
g Cube.001_Cube.002_Material.001
usemtl Material.001
s off
f 1/1/1 2/2/1 4/3/1 3/4/1
f 5/5/2 7/6/2 8/7/2 6/8/2
f 4/9/3 2/10/3 6/8/3 8/7/3
f 2/2/4 1/1/4 5/5/4 6/8/4
f 3/11/5 4/12/5 8/7/5 7/6/5
f 1/13/6 3/14/6 7/6/6 5/5/6
f 14/15/4 13/16/4 15/17/4 16/18/4
f 12/19/3 10/20/3 14/15/3 16/18/3
f 10/21/1 9/22/1 13/16/1 14/15/1
f 9/23/6 11/24/6 15/17/6 13/16/6
f 11/25/7 12/26/7 16/18/7 15/17/7
